<?xml version="1.0" encoding="utf-8"?>
<!-- Generator: Adobe Illustrator 19.2.1, SVG Export Plug-In . SVG Version: 6.00 Build 0)  -->
<svg version="1.1" id="Layer_1" xmlns="http://www.w3.org/2000/svg" xmlns:xlink="http://www.w3.org/1999/xlink" x="0px" y="0px"
	 viewBox="0 0 250.2 125" style="enable-background:new 0 0 250.2 125;" xml:space="preserve">
<style type="text/css">
	.st0{fill:#F9D023;}
</style>
<title>pop-logo</title>
<circle class="st0" cx="104.3" cy="61.3" r="46.6"/>
<path class="st0" d="M26.5,0H0v125h20.3V70.3h29.9V0H26.5z M17.5,25.8c-5,0-9.1-4.1-9.1-9.1s4.1-9.1,9.1-9.1s9.1,4.1,9.1,9.1
	c0,0,0,0,0,0C26.6,21.7,22.5,25.8,17.5,25.8z"/>
<path class="st0" d="M184.9,0h-26.5v125h20.3V70.3h29.9V0H184.9z M175.9,25.8c-5,0-9.1-4-9.1-9.1s4-9.1,9.1-9.1c5,0,9.1,4,9.1,9.1
	c0,0,0,0,0,0C185,21.7,180.9,25.8,175.9,25.8z"/>
</svg>
